<?xml version="1.0" encoding="UTF-8"?>
<svg width="178px" height="53px" viewBox="0 0 178 53" version="1.1" xmlns="http://www.w3.org/2000/svg" xmlns:xlink="http://www.w3.org/1999/xlink">
    <!-- Generator: sketchtool 56.2 (101010) - https://sketch.com -->
    <title>80019E1D-9F70-4B6B-B426-256341F0CE88</title>
    <desc>Created with sketchtool.</desc>
    <defs>
        <polygon id="path-1" points="0.3477 0.52236 18.4902 0.52236 18.4902 25.38336 0.3477 25.38336"></polygon>
        <polygon id="path-3" points="3.6177564e-05 0.2154 62.1693779 0.2154 62.1693779 49.00194 3.6177564e-05 49.00194"></polygon>
    </defs>
    <g id="HOME-REFRESH" stroke="none" stroke-width="1" fill="none" fill-rule="evenodd">
        <g id="LANDING1.0" transform="translate(-47.000000, -41.000000)">
            <g id="Group-45" transform="translate(47.000000, 41.000000)">
                <path d="M73.79022,44.50686 C74.08422,43.91826 74.52582,43.77126 75.06522,44.11446 L76.87842,45.14406 C77.36982,45.43866 77.56602,45.88026 77.27202,46.41966 C75.21162,50.24406 71.77842,52.15686 67.02282,52.15686 C59.61882,52.15686 55.59822,48.03726 55.59822,40.38786 L55.59822,30.18846 C55.59822,22.53906 59.61882,18.42006 67.02282,18.42006 C71.82762,18.42006 75.26082,20.33226 77.27202,24.15666 C77.56602,24.69666 77.41842,25.13766 76.87842,25.43166 L75.06522,26.46186 C74.52582,26.80506 74.08422,26.65746 73.79022,26.11866 C72.41682,23.61786 70.21002,22.29366 67.02282,22.29366 C62.31522,22.29366 60.01122,25.08846 60.01122,30.72786 L60.01122,39.84846 C60.01122,45.48726 62.31522,48.28266 67.02282,48.28266 C70.21002,48.28266 72.41682,46.95846 73.79022,44.50686" id="Fill-1" fill="#FFFFFF"></path>
                <path d="M94.67712,36.41592 C94.67712,32.19912 93.05892,30.23772 89.47932,30.23772 C85.94832,30.23772 84.33072,32.19912 84.33072,36.41592 L84.33072,42.49632 C84.33072,46.66452 85.94832,48.62592 89.47932,48.62592 C93.05892,48.62592 94.67712,46.66452 94.67712,42.49632 L94.67712,36.41592 Z M98.74692,35.97492 L98.74692,42.93792 C98.74692,48.91992 95.51112,52.15632 89.47932,52.15632 C83.49672,52.15632 80.26032,48.91992 80.26032,42.93792 L80.26032,35.97492 C80.26032,29.94312 83.49672,26.70672 89.47932,26.70672 C95.51112,26.70672 98.74692,29.94312 98.74692,35.97492 L98.74692,35.97492 Z" id="Fill-3" fill="#FFFFFF"></path>
                <path d="M104.5308,51.56802 C103.9428,51.56802 103.599,51.22482 103.599,50.63622 L103.599,18.17502 C103.599,17.58642 103.9428,17.24322 104.5308,17.24322 L106.7376,17.24322 C107.3262,17.24322 107.6682,17.58642 107.6682,18.17502 L107.6682,50.63622 C107.6682,51.22482 107.3262,51.56802 106.7376,51.56802 L104.5308,51.56802 Z" id="Fill-5" fill="#FFFFFF"></path>
                <path d="M127.57692,36.41592 C127.57692,32.19912 125.95872,30.23772 122.42832,30.23772 C118.94652,30.23772 117.23052,32.29692 117.23052,36.41592 L117.23052,42.49632 C117.23052,46.66452 118.84872,48.62592 122.42832,48.62592 C125.95872,48.62592 127.57692,46.66452 127.57692,42.49632 L127.57692,36.41592 Z M131.64672,35.97492 L131.64672,42.88872 C131.64672,48.91992 128.41092,52.15632 122.42832,52.15632 C116.39712,52.15632 113.16072,48.91992 113.16072,42.88872 L113.16072,18.17472 C113.16072,17.58612 113.50392,17.24292 114.09132,17.24292 L116.29872,17.24292 C116.88732,17.24292 117.23052,17.58612 117.23052,18.17472 L117.23052,29.15892 L117.32892,29.15892 C118.55472,27.54072 120.46632,26.70672 123.06492,26.70672 C128.65632,26.70672 131.64672,29.94312 131.64672,35.97492 L131.64672,35.97492 Z" id="Fill-7" fill="#FFFFFF"></path>
                <path d="M154.10292,43.23186 C154.10292,49.06746 150.96492,52.15686 145.17852,52.15686 C139.39092,52.15686 136.25352,49.06746 136.25352,43.23186 L136.25352,28.22706 C136.25352,27.63846 136.59672,27.29526 137.18532,27.29526 L139.39092,27.29526 C139.98072,27.29526 140.32332,27.63846 140.32332,28.22706 L140.32332,42.88866 C140.32332,46.86066 141.84312,48.62586 145.22772,48.62586 C148.61112,48.62586 150.13092,46.86066 150.13092,42.88866 L150.13092,28.22706 C150.13092,27.63846 150.47412,27.29526 151.06272,27.29526 L153.17112,27.29526 C153.75972,27.29526 154.10292,27.63846 154.10292,28.22706 L154.10292,43.23186 Z" id="Fill-9" fill="#FFFFFF"></path>
                <g id="Group-13" transform="translate(159.000000, 26.184600)">
                    <mask id="mask-2" fill="white">
                        <use xlink:href="#path-1"></use>
                    </mask>
                    <g id="Clip-12"></g>
                    <path d="M14.4207,10.03536 C14.4207,5.91636 12.8517,4.05276 9.4191,4.05276 C5.9859,4.05276 4.4175,5.91636 4.4175,10.03536 L4.4175,24.45156 C4.4175,25.04016 4.0743,25.38336 3.4851,25.38336 L1.2795,25.38336 C0.6909,25.38336 0.3477,25.04016 0.3477,24.45156 L0.3477,9.59376 C0.3477,3.70956 3.5343,0.52236 9.4191,0.52236 C15.3033,0.52236 18.4905,3.70956 18.4905,9.59376 L18.4905,24.45156 C18.4905,25.04016 18.1473,25.38336 17.5581,25.38336 L15.3525,25.38336 C14.7633,25.38336 14.4207,25.04016 14.4207,24.45156 L14.4207,10.03536 Z" id="Fill-11" fill="#FFFFFF" mask="url(#mask-2)"></path>
                </g>
                <path d="M36.5064,37.07394 C35.7792,37.07394 35.0946,36.83454 34.5264,36.38154 C27.2748,30.59994 24.5526,24.32154 26.8614,18.70254 C29.0208,13.44714 35.9358,10.18254 44.9076,10.18254 C49.0446,10.18254 53.4834,10.88754 57.744,12.22314 C58.1598,12.36594 58.3884,12.79614 58.2606,13.20114 C58.1592,13.52454 57.861,13.73334 57.501,13.73334 C57.4194,13.73334 57.3408,13.72314 57.264,13.70274 C54.1716,12.88674 51.1362,12.47334 48.2406,12.47334 C41.2608,12.47334 36.0816,14.93634 34.3866,19.06134 C32.8488,22.80414 34.4028,27.40134 38.544,31.35894 C38.5398,31.35894 38.5668,31.39494 38.5956,31.41894 C39.915,32.54334 40.1082,34.48914 39.0348,35.84874 C38.4204,36.62754 37.4988,37.07394 36.5064,37.07394" id="Fill-38" fill="#FFFFFF"></path>
                <path d="M40.12518,51.01104 C39.47838,51.01104 38.84538,50.88264 38.24358,50.62824 C20.24718,43.03344 9.65838,28.54824 14.13618,17.64984 C17.25078,10.07064 27.12798,5.36244 39.91278,5.36244 C44.14698,5.36244 48.52758,5.87364 52.93338,6.88044 C53.93418,7.10964 54.36618,7.69464 54.21678,8.62044 C54.09798,9.35604 53.47158,9.89064 52.72758,9.89064 C52.64718,9.89064 52.56558,9.88464 52.48398,9.87144 C52.46058,9.86724 52.43898,9.86064 52.41738,9.85344 L52.33098,9.82764 C49.83018,9.38724 47.37378,9.16644 45.00978,9.16644 C35.56638,9.16644 28.24758,12.70164 25.90938,18.39324 C22.65558,26.31204 29.27418,36.04044 42.00378,42.05004 C44.38698,43.17504 45.44838,45.88824 44.42118,48.22704 C43.67838,49.91844 41.99178,51.01104 40.12518,51.01104" id="Fill-40" fill="#FFFFFF"></path>
                <g id="Group-44" transform="translate(0.000000, 0.384600)">
                    <mask id="mask-4" fill="white">
                        <use xlink:href="#path-3"></use>
                    </mask>
                    <g id="Clip-43"></g>
                    <path d="M17.30964,49.00194 C16.18524,49.00194 15.12684,48.60234 14.24844,47.84694 C2.05704,37.35774 -2.61936,25.79994 1.41864,16.13694 C5.52204,6.31614 18.37284,0.21534 34.95444,0.21534 C42.76644,0.21534 51.15084,1.58334 59.20164,4.17174 C60.02424,4.43574 61.26804,4.83954 61.33824,4.86594 C62.04144,5.17614 62.36364,6.01494 62.04804,6.73374 C61.82184,7.25034 61.30944,7.58454 60.74424,7.58454 C60.54744,7.58454 60.35544,7.54374 60.17244,7.46394 C60.05184,7.41114 58.84584,7.02774 58.62864,6.95994 C52.42824,5.01174 45.97164,3.98154 39.95544,3.98154 C26.71644,3.98154 16.46124,8.92314 13.19244,16.87674 C10.32444,23.85714 12.98004,32.17974 20.47764,39.71214 C20.52144,39.75174 24.22284,43.21614 21.41664,46.99794 C20.32584,48.26814 18.82644,49.00194 17.30964,49.00194" id="Fill-42" fill="#FFFFFF" mask="url(#mask-4)"></path>
                </g>
            </g>
        </g>
    </g>
</svg>